<mxfile host="app.diagrams.net" modified="2023-06-16T06:10:43.801Z" agent="Mozilla/5.0 (Windows NT 10.0; Win64; x64) AppleWebKit/537.36 (KHTML, like Gecko) Chrome/114.0.0.0 Safari/537.36" etag="8ZmOkyOxpErKi_1fHXto" version="21.4.0" type="github">
  <diagram name="Page-1" id="Q-3r_mM0M0SEpykyJmww">
    <mxGraphModel dx="1050" dy="581" grid="1" gridSize="10" guides="1" tooltips="1" connect="1" arrows="1" fold="1" page="1" pageScale="1" pageWidth="850" pageHeight="1100" math="0" shadow="0">
      <root>
        <mxCell id="0" />
        <mxCell id="1" parent="0" />
        <mxCell id="2" value="Voter" style="swimlane;fontStyle=1;align=center;verticalAlign=top;childLayout=stackLayout;horizontal=1;startSize=26.25714329310826;horizontalStack=0;resizeParent=1;resizeParentMax=0;resizeLast=0;collapsible=0;marginBottom=0;" parent="1" vertex="1">
          <mxGeometry x="361" y="20" width="129" height="190.25714329310824" as="geometry" />
        </mxCell>
        <mxCell id="3" value="-id: int" style="text;strokeColor=none;fillColor=none;align=left;verticalAlign=top;spacingLeft=4;spacingRight=4;overflow=hidden;rotatable=0;points=[[0,0.5],[1,0.5]];portConstraint=eastwest;" parent="2" vertex="1">
          <mxGeometry y="26.25714329310826" width="129" height="26" as="geometry" />
        </mxCell>
        <mxCell id="4" value="-name: string" style="text;strokeColor=none;fillColor=none;align=left;verticalAlign=top;spacingLeft=4;spacingRight=4;overflow=hidden;rotatable=0;points=[[0,0.5],[1,0.5]];portConstraint=eastwest;" parent="2" vertex="1">
          <mxGeometry y="52.25714329310826" width="129" height="26" as="geometry" />
        </mxCell>
        <mxCell id="5" value="-age: int" style="text;strokeColor=none;fillColor=none;align=left;verticalAlign=top;spacingLeft=4;spacingRight=4;overflow=hidden;rotatable=0;points=[[0,0.5],[1,0.5]];portConstraint=eastwest;" parent="2" vertex="1">
          <mxGeometry y="78.25714329310826" width="129" height="26" as="geometry" />
        </mxCell>
        <mxCell id="6" value="-address: string" style="text;strokeColor=none;fillColor=none;align=left;verticalAlign=top;spacingLeft=4;spacingRight=4;overflow=hidden;rotatable=0;points=[[0,0.5],[1,0.5]];portConstraint=eastwest;" parent="2" vertex="1">
          <mxGeometry y="104.25714329310826" width="129" height="26" as="geometry" />
        </mxCell>
        <mxCell id="7" value="-voted: boolean" style="text;strokeColor=none;fillColor=none;align=left;verticalAlign=top;spacingLeft=4;spacingRight=4;overflow=hidden;rotatable=0;points=[[0,0.5],[1,0.5]];portConstraint=eastwest;" parent="2" vertex="1">
          <mxGeometry y="130.25714329310824" width="129" height="26" as="geometry" />
        </mxCell>
        <mxCell id="8" style="line;strokeWidth=1;fillColor=none;align=left;verticalAlign=middle;spacingTop=-1;spacingLeft=3;spacingRight=3;rotatable=0;labelPosition=right;points=[];portConstraint=eastwest;strokeColor=inherit;" parent="2" vertex="1">
          <mxGeometry y="156.25714329310824" width="129" height="8" as="geometry" />
        </mxCell>
        <mxCell id="9" value="+Vote()" style="text;strokeColor=none;fillColor=none;align=left;verticalAlign=top;spacingLeft=4;spacingRight=4;overflow=hidden;rotatable=0;points=[[0,0.5],[1,0.5]];portConstraint=eastwest;" parent="2" vertex="1">
          <mxGeometry y="164.25714329310824" width="129" height="26" as="geometry" />
        </mxCell>
        <mxCell id="10" value="Candidate" style="swimlane;fontStyle=1;align=center;verticalAlign=top;childLayout=stackLayout;horizontal=1;startSize=25.774999618530273;horizontalStack=0;resizeParent=1;resizeParentMax=0;resizeLast=0;collapsible=0;marginBottom=0;" parent="1" vertex="1">
          <mxGeometry x="540" y="280" width="132" height="215.77499961853027" as="geometry" />
        </mxCell>
        <mxCell id="11" value="-id: int" style="text;strokeColor=none;fillColor=none;align=left;verticalAlign=top;spacingLeft=4;spacingRight=4;overflow=hidden;rotatable=0;points=[[0,0.5],[1,0.5]];portConstraint=eastwest;" parent="10" vertex="1">
          <mxGeometry y="25.774999618530273" width="132" height="26" as="geometry" />
        </mxCell>
        <mxCell id="12" value="-name: string" style="text;strokeColor=none;fillColor=none;align=left;verticalAlign=top;spacingLeft=4;spacingRight=4;overflow=hidden;rotatable=0;points=[[0,0.5],[1,0.5]];portConstraint=eastwest;" parent="10" vertex="1">
          <mxGeometry y="51.77499961853027" width="132" height="26" as="geometry" />
        </mxCell>
        <mxCell id="13" value="-age: int" style="text;strokeColor=none;fillColor=none;align=left;verticalAlign=top;spacingLeft=4;spacingRight=4;overflow=hidden;rotatable=0;points=[[0,0.5],[1,0.5]];portConstraint=eastwest;" parent="10" vertex="1">
          <mxGeometry y="77.77499961853027" width="132" height="26" as="geometry" />
        </mxCell>
        <mxCell id="14" value="-address: string" style="text;strokeColor=none;fillColor=none;align=left;verticalAlign=top;spacingLeft=4;spacingRight=4;overflow=hidden;rotatable=0;points=[[0,0.5],[1,0.5]];portConstraint=eastwest;" parent="10" vertex="1">
          <mxGeometry y="103.77499961853027" width="132" height="26" as="geometry" />
        </mxCell>
        <mxCell id="15" value="-party: string" style="text;strokeColor=none;fillColor=none;align=left;verticalAlign=top;spacingLeft=4;spacingRight=4;overflow=hidden;rotatable=0;points=[[0,0.5],[1,0.5]];portConstraint=eastwest;" parent="10" vertex="1">
          <mxGeometry y="129.77499961853027" width="132" height="26" as="geometry" />
        </mxCell>
        <mxCell id="16" value="-total_votes: int" style="text;strokeColor=none;fillColor=none;align=left;verticalAlign=top;spacingLeft=4;spacingRight=4;overflow=hidden;rotatable=0;points=[[0,0.5],[1,0.5]];portConstraint=eastwest;" parent="10" vertex="1">
          <mxGeometry y="155.77499961853027" width="132" height="26" as="geometry" />
        </mxCell>
        <mxCell id="17" style="line;strokeWidth=1;fillColor=none;align=left;verticalAlign=middle;spacingTop=-1;spacingLeft=3;spacingRight=3;rotatable=0;labelPosition=right;points=[];portConstraint=eastwest;strokeColor=inherit;" parent="10" vertex="1">
          <mxGeometry y="181.77499961853027" width="132" height="8" as="geometry" />
        </mxCell>
        <mxCell id="18" value="+EditDetails()" style="text;strokeColor=none;fillColor=none;align=left;verticalAlign=top;spacingLeft=4;spacingRight=4;overflow=hidden;rotatable=0;points=[[0,0.5],[1,0.5]];portConstraint=eastwest;" parent="10" vertex="1">
          <mxGeometry y="189.77499961853027" width="132" height="26" as="geometry" />
        </mxCell>
        <mxCell id="19" value="Election" style="swimlane;fontStyle=1;align=center;verticalAlign=top;childLayout=stackLayout;horizontal=1;startSize=24.649998982747395;horizontalStack=0;resizeParent=1;resizeParentMax=0;resizeLast=0;collapsible=0;marginBottom=0;" parent="1" vertex="1">
          <mxGeometry x="8" y="250" width="230" height="304" as="geometry" />
        </mxCell>
        <mxCell id="20" value="-id: int" style="text;strokeColor=none;fillColor=none;align=left;verticalAlign=top;spacingLeft=4;spacingRight=4;overflow=hidden;rotatable=0;points=[[0,0.5],[1,0.5]];portConstraint=eastwest;" parent="19" vertex="1">
          <mxGeometry y="25" width="230" height="25" as="geometry" />
        </mxCell>
        <mxCell id="21" value="-election_type: string" style="text;strokeColor=none;fillColor=none;align=left;verticalAlign=top;spacingLeft=4;spacingRight=4;overflow=hidden;rotatable=0;points=[[0,0.5],[1,0.5]];portConstraint=eastwest;" parent="19" vertex="1">
          <mxGeometry y="49" width="230" height="25" as="geometry" />
        </mxCell>
        <mxCell id="22" value="-date: date" style="text;strokeColor=none;fillColor=none;align=left;verticalAlign=top;spacingLeft=4;spacingRight=4;overflow=hidden;rotatable=0;points=[[0,0.5],[1,0.5]];portConstraint=eastwest;" parent="19" vertex="1">
          <mxGeometry y="74" width="230" height="25" as="geometry" />
        </mxCell>
        <mxCell id="23" value="-start_time: time" style="text;strokeColor=none;fillColor=none;align=left;verticalAlign=top;spacingLeft=4;spacingRight=4;overflow=hidden;rotatable=0;points=[[0,0.5],[1,0.5]];portConstraint=eastwest;" parent="19" vertex="1">
          <mxGeometry y="99" width="230" height="25" as="geometry" />
        </mxCell>
        <mxCell id="24" value="-end_time: time" style="text;strokeColor=none;fillColor=none;align=left;verticalAlign=top;spacingLeft=4;spacingRight=4;overflow=hidden;rotatable=0;points=[[0,0.5],[1,0.5]];portConstraint=eastwest;" parent="19" vertex="1">
          <mxGeometry y="123" width="230" height="25" as="geometry" />
        </mxCell>
        <mxCell id="25" value="-candidates: array[Candidate]" style="text;strokeColor=none;fillColor=none;align=left;verticalAlign=top;spacingLeft=4;spacingRight=4;overflow=hidden;rotatable=0;points=[[0,0.5],[1,0.5]];portConstraint=eastwest;" parent="19" vertex="1">
          <mxGeometry y="148" width="230" height="25" as="geometry" />
        </mxCell>
        <mxCell id="26" value="-voters: array[Voter]" style="text;strokeColor=none;fillColor=none;align=left;verticalAlign=top;spacingLeft=4;spacingRight=4;overflow=hidden;rotatable=0;points=[[0,0.5],[1,0.5]];portConstraint=eastwest;" parent="19" vertex="1">
          <mxGeometry y="173" width="230" height="25" as="geometry" />
        </mxCell>
        <mxCell id="27" value="-result: array[Candidate]" style="text;strokeColor=none;fillColor=none;align=left;verticalAlign=top;spacingLeft=4;spacingRight=4;overflow=hidden;rotatable=0;points=[[0,0.5],[1,0.5]];portConstraint=eastwest;" parent="19" vertex="1">
          <mxGeometry y="197" width="230" height="25" as="geometry" />
        </mxCell>
        <mxCell id="28" style="line;strokeWidth=1;fillColor=none;align=left;verticalAlign=middle;spacingTop=-1;spacingLeft=3;spacingRight=3;rotatable=0;labelPosition=right;points=[];portConstraint=eastwest;strokeColor=inherit;" parent="19" vertex="1">
          <mxGeometry y="222" width="230" height="8" as="geometry" />
        </mxCell>
        <mxCell id="29" value="+AddCandidate()" style="text;strokeColor=none;fillColor=none;align=left;verticalAlign=top;spacingLeft=4;spacingRight=4;overflow=hidden;rotatable=0;points=[[0,0.5],[1,0.5]];portConstraint=eastwest;" parent="19" vertex="1">
          <mxGeometry y="230" width="230" height="25" as="geometry" />
        </mxCell>
        <mxCell id="30" value="+AddVoter()" style="text;strokeColor=none;fillColor=none;align=left;verticalAlign=top;spacingLeft=4;spacingRight=4;overflow=hidden;rotatable=0;points=[[0,0.5],[1,0.5]];portConstraint=eastwest;" parent="19" vertex="1">
          <mxGeometry y="254" width="230" height="25" as="geometry" />
        </mxCell>
        <mxCell id="31" value="+GetResult()" style="text;strokeColor=none;fillColor=none;align=left;verticalAlign=top;spacingLeft=4;spacingRight=4;overflow=hidden;rotatable=0;points=[[0,0.5],[1,0.5]];portConstraint=eastwest;" parent="19" vertex="1">
          <mxGeometry y="279" width="230" height="25" as="geometry" />
        </mxCell>
        <mxCell id="32" value="" style="curved=1;startArrow=none;endArrow=open;endSize=12;exitX=0.49791664300962934;exitY=0.9989583492279053;entryX=0.5010054215140964;entryY=-0.0006578846981650905;" parent="1" source="2" target="19" edge="1">
          <mxGeometry relative="1" as="geometry">
            <Array as="points" />
          </mxGeometry>
        </mxCell>
        <mxCell id="33" value="" style="curved=1;startArrow=none;endArrow=open;endSize=12;exitX=0.5010054215140964;exitY=0.9986841804102847;entryX=0.5017518708200166;entryY=-0.00186920166015625;" parent="1" source="19" target="10" edge="1">
          <mxGeometry relative="1" as="geometry">
            <Array as="points" />
          </mxGeometry>
        </mxCell>
      </root>
    </mxGraphModel>
  </diagram>
</mxfile>
